<svg width="80" height="80" xmlns="http://www.w3.org/2000/svg">
  <defs>
    <linearGradient id="gradSwing" x1="0%" y1="0%" x2="100%" y2="100%">
      <stop offset="0%" style="stop-color:#e63946;stop-opacity:1"/>
      <stop offset="100%" style="stop-color:#a8dadc;stop-opacity:1"/>
    </linearGradient>
  </defs>
  <!-- Outer globe circle -->
  <circle cx="40" cy="40" r="36" fill="none" stroke="url(#gradSwing)" stroke-width="4"/>
  <!-- Meridians and parallels -->
  <path d="M4,40 a36,36 0 0,0 72,0" fill="none" stroke="url(#gradSwing)" stroke-width="1"/>
  <path d="M40,4 a36,36 0 0,0 0,72" fill="none" stroke="url(#gradSwing)" stroke-width="1"/>
  <path d="M40,4 a28,36 0 0,1 0,72" fill="none" stroke="url(#gradSwing)" stroke-width="1" opacity="0.6"/>
  <path d="M4,40 a36,28 0 0,1 72,0" fill="none" stroke="url(#gradSwing)" stroke-width="1" opacity="0.6"/>
  <!-- Heart nodes -->
  <g fill="url(#gradSwing)" stroke="#fff" stroke-width="1">
    <path transform="translate(30,20) scale(0.5)" d="M32 58c0-7-6-12-12-18-6 6-12 11-12 18 0 13 12 18 12 18s12-5 12-18z"/>
    <path transform="translate(52,28) scale(0.5)" d="M32 58c0-7-6-12-12-18-6 6-12 11-12 18 0 13 12 18 12 18s12-5 12-18z"/>
    <path transform="translate(24,50) scale(0.5)" d="M32 58c0-7-6-12-12-18-6 6-12 11-12 18 0 13 12 18 12 18s12-5 12-18z"/>
  </g>
  <!-- Connections -->
  <line x1="40" y1="24" x2="56" y2="36" stroke="url(#gradSwing)" stroke-width="2"/>
  <line x1="40" y1="24" x2="32" y2="50" stroke="url(#gradSwing)" stroke-width="2"/>
  <line x1="56" y1="36" x2="32" y2="50" stroke="url(#gradSwing)" stroke-width="2"/>
</svg>
